<?xml version="1.0" encoding="UTF-8"?>
<!DOCTYPE svg PUBLIC "-//W3C//DTD SVG 1.1//EN" "http://www.w3.org/Graphics/SVG/1.1/DTD/svg11.dtd">
<svg xmlns="http://www.w3.org/2000/svg" version="1.1" width="1280px" height="960px" style="shape-rendering:geometricPrecision; text-rendering:geometricPrecision; image-rendering:optimizeQuality; fill-rule:evenodd; clip-rule:evenodd" xmlns:xlink="http://www.w3.org/1999/xlink">
<g><path style="opacity:1" fill="#fefefe" d="M -0.5,-0.5 C 426.167,-0.5 852.833,-0.5 1279.5,-0.5C 1279.5,319.5 1279.5,639.5 1279.5,959.5C 852.833,959.5 426.167,959.5 -0.5,959.5C -0.5,639.5 -0.5,319.5 -0.5,-0.5 Z"/></g>
<g><path style="opacity:1" fill="#1572b6" d="M 399.5,203.5 C 565.5,203.5 731.5,203.5 897.5,203.5C 882.26,372.141 867.26,540.807 852.5,709.5C 784.214,728.322 715.881,746.988 647.5,765.5C 579.868,747.265 512.368,728.598 445,709.5C 429.742,540.832 414.576,372.165 399.5,203.5 Z"/></g>
<g><path style="opacity:1" fill="#35a7da" d="M 648.5,664.5 C 692.161,652.377 735.661,639.71 779,626.5C 784.942,561.864 790.442,497.197 795.5,432.5C 747.833,431.833 700.167,431.167 652.5,430.5C 702.058,409.221 751.724,388.221 801.5,367.5C 803.698,346.52 805.698,325.52 807.5,304.5C 754.669,303.501 701.669,303.168 648.5,303.5C 648.5,281.833 648.5,260.167 648.5,238.5C 718.833,238.5 789.167,238.5 859.5,238.5C 846.184,385.807 833.018,533.141 820,680.5C 819.5,681.667 818.667,682.5 817.5,683C 761.168,698.565 704.835,714.065 648.5,729.5C 648.5,707.833 648.5,686.167 648.5,664.5 Z"/></g>
<g><path style="opacity:1" fill="#e6e8e7" d="M 648.5,303.5 C 701.669,303.168 754.669,303.501 807.5,304.5C 754.5,304.5 701.5,304.5 648.5,304.5C 648.5,325.167 648.5,345.833 648.5,366.5C 596.833,366.5 545.167,366.5 493.5,366.5C 490.92,345.526 488.587,324.526 486.5,303.5C 540.5,303.5 594.5,303.5 648.5,303.5 Z"/></g>
<g><path style="opacity:1" fill="#fefefd" d="M 807.5,304.5 C 805.698,325.52 803.698,346.52 801.5,367.5C 751.724,388.221 702.058,409.221 652.5,430.5C 651.609,431.11 650.609,431.443 649.5,431.5C 648.503,411.34 648.17,391.007 648.5,370.5C 648.5,370.167 648.5,369.833 648.5,369.5C 657.541,367.484 657.541,366.484 648.5,366.5C 648.5,345.833 648.5,325.167 648.5,304.5C 701.5,304.5 754.5,304.5 807.5,304.5 Z"/></g>
<g><path style="opacity:1" fill="#4e95c5" d="M 493.5,366.5 C 545.167,366.5 596.833,366.5 648.5,366.5C 657.541,366.484 657.541,367.484 648.5,369.5C 597.008,367.835 545.341,366.835 493.5,366.5 Z"/></g>
<g><path style="opacity:1" fill="#e8e8e7" d="M 648.5,370.5 C 648.17,391.007 648.503,411.34 649.5,431.5C 649.5,431.833 649.5,432.167 649.5,432.5C 648.503,452.66 648.17,472.993 648.5,493.5C 600.5,493.5 552.5,493.5 504.5,493.5C 502.916,472.828 501.25,452.161 499.5,431.5C 549.27,411.449 598.936,391.116 648.5,370.5 Z"/></g>
<g><path style="opacity:1" fill="#64bae1" d="M 652.5,430.5 C 700.167,431.167 747.833,431.833 795.5,432.5C 746.833,432.5 698.167,432.5 649.5,432.5C 649.5,432.167 649.5,431.833 649.5,431.5C 650.609,431.443 651.609,431.11 652.5,430.5 Z"/></g>
<g><path style="opacity:1" fill="#fefefd" d="M 649.5,432.5 C 698.167,432.5 746.833,432.5 795.5,432.5C 790.442,497.197 784.942,561.864 779,626.5C 735.661,639.71 692.161,652.377 648.5,664.5C 648.5,641.833 648.5,619.167 648.5,596.5C 648.5,596.167 648.5,595.833 648.5,595.5C 672.5,589.167 696.5,582.833 720.5,576.5C 721.482,551.812 722.815,527.145 724.5,502.5C 725.477,499.713 725.81,496.713 725.5,493.5C 699.833,493.5 674.167,493.5 648.5,493.5C 648.17,472.993 648.503,452.66 649.5,432.5 Z"/></g>
<g><path style="opacity:1" fill="#deedf3" d="M 648.5,494.5 C 648.5,494.167 648.5,493.833 648.5,493.5C 674.167,493.5 699.833,493.5 725.5,493.5C 725.81,496.713 725.477,499.713 724.5,502.5C 724.5,499.833 724.5,497.167 724.5,494.5C 699.167,494.5 673.833,494.5 648.5,494.5 Z"/></g>
<g><path style="opacity:1" fill="#35a8db" d="M 648.5,494.5 C 673.833,494.5 699.167,494.5 724.5,494.5C 724.5,497.167 724.5,499.833 724.5,502.5C 722.815,527.145 721.482,551.812 720.5,576.5C 696.5,582.833 672.5,589.167 648.5,595.5C 648.5,561.833 648.5,528.167 648.5,494.5 Z"/></g>
<g><path style="opacity:1" fill="#e8e8e7" d="M 648.5,596.5 C 648.5,619.167 648.5,641.833 648.5,664.5C 604.463,652.044 560.463,639.378 516.5,626.5C 514.388,593.819 512.054,561.152 509.5,528.5C 531.167,528.5 552.833,528.5 574.5,528.5C 575.093,545.441 576.426,562.275 578.5,579C 601.768,585.15 625.101,590.984 648.5,596.5 Z"/></g>
</svg>
