<?xml version="1.0" encoding="UTF-8"?>
<!DOCTYPE svg PUBLIC "-//W3C//DTD SVG 1.1//EN" "http://www.w3.org/Graphics/SVG/1.1/DTD/svg11.dtd">
<svg xmlns="http://www.w3.org/2000/svg" version="1.1" width="800px" height="600px" style="shape-rendering:geometricPrecision; text-rendering:geometricPrecision; image-rendering:optimizeQuality; fill-rule:evenodd; clip-rule:evenodd" xmlns:xlink="http://www.w3.org/1999/xlink">
<g><path style="opacity:1" fill="#fefefe" d="M -0.5,-0.5 C 266.167,-0.5 532.833,-0.5 799.5,-0.5C 799.5,199.5 799.5,399.5 799.5,599.5C 532.833,599.5 266.167,599.5 -0.5,599.5C -0.5,399.5 -0.5,199.5 -0.5,-0.5 Z"/></g>
<g><path style="opacity:1" fill="#080808" d="M 246.5,189.5 C 258.56,191.899 269.06,197.233 278,205.5C 279.987,207.679 279.82,209.512 277.5,211C 274.167,211.667 270.833,211.667 267.5,211C 261.625,208.143 255.458,206.31 249,205.5C 243.07,205.768 240.237,208.935 240.5,215C 241.484,245.745 244.651,276.245 250,306.5C 254.09,324.451 261.09,341.117 271,356.5C 282.384,371.557 294.884,385.724 308.5,399C 330.71,416.603 355.71,428.603 383.5,435C 388.11,436.29 392.777,436.624 397.5,436C 402.541,429.292 408.541,423.625 415.5,419C 419.957,416.662 423.957,417.162 427.5,420.5C 424.644,426.362 420.977,431.695 416.5,436.5C 416.977,437.478 417.643,438.311 418.5,439C 422.677,439.458 426.843,439.292 431,438.5C 436.45,439.737 441.95,440.737 447.5,441.5C 451.724,441.463 455.224,439.796 458,436.5C 459.214,438.049 460.714,439.215 462.5,440C 471.167,440.333 479.833,440.667 488.5,441C 491.394,443.909 492.227,447.409 491,451.5C 490.097,452.701 488.931,453.535 487.5,454C 480.896,455.659 474.23,456.992 467.5,458C 464.127,459.121 460.961,460.621 458,462.5C 455.137,461.212 452.137,460.546 449,460.5C 441.215,461.65 433.715,463.817 426.5,467C 415.449,467.845 404.449,469.178 393.5,471C 264.446,485.103 176.28,432.27 129,312.5C 122.73,293.422 117.397,274.088 113,254.5C 110.452,245.52 107.118,236.853 103,228.5C 102.027,215.952 107.194,206.785 118.5,201C 124.759,199.249 130.759,196.915 136.5,194C 134.155,193.83 131.821,194.163 129.5,195C 126.146,198.154 122.646,198.654 119,196.5C 117.973,192.82 118.806,189.653 121.5,187C 125.321,185.168 129.321,183.834 133.5,183C 137.802,181.065 139.802,177.732 139.5,173C 139.011,169.605 138.177,166.438 137,163.5C 142.02,159.478 146.686,155.144 151,150.5C 151.52,148.711 151.187,147.044 150,145.5C 143.891,142.281 141.225,137.281 142,130.5C 147.501,125.095 153.667,124.262 160.5,128C 162.205,129.863 163.205,132.029 163.5,134.5C 162.028,138.402 161.528,142.402 162,146.5C 162.833,147.333 163.667,148.167 164.5,149C 171.167,149.333 177.833,149.667 184.5,150C 186.729,152.553 187.062,155.386 185.5,158.5C 186.313,159.814 187.313,160.981 188.5,162C 196.018,164.458 203.685,166.458 211.5,168C 214.521,169.539 215.854,172.039 215.5,175.5C 222.39,176.445 228.39,179.278 233.5,184C 237.788,186.265 242.121,188.098 246.5,189.5 Z"/></g>
<g><path style="opacity:1" fill="#eaeaea" d="M 149.5,127.5 C 154.717,126.439 158.05,128.439 159.5,133.5C 158.652,134.991 157.319,135.658 155.5,135.5C 152.846,134.732 150.179,134.566 147.5,135C 146.788,136.425 146.621,137.925 147,139.5C 144.553,134.784 145.386,130.784 149.5,127.5 Z"/></g>
<g><path style="opacity:1" fill="#b2b2b2" d="M 156.5,152.5 C 158.337,152.639 158.67,153.306 157.5,154.5C 156.702,154.043 156.369,153.376 156.5,152.5 Z"/></g>
<g><path style="opacity:1" fill="#eeeeee" d="M 167.5,153.5 C 169.924,153.192 172.257,153.526 174.5,154.5C 171.987,156.405 169.321,156.739 166.5,155.5C 166.863,154.817 167.196,154.15 167.5,153.5 Z"/></g>
<g><path style="opacity:1" fill="#f8f8f8" d="M 169.5,163.5 C 175.786,164.756 181.453,167.256 186.5,171C 185.049,170.737 183.716,170.904 182.5,171.5C 184.775,178.059 182.775,179.893 176.5,177C 171.904,173.64 169.571,169.14 169.5,163.5 Z"/></g>
<g><path style="opacity:1" fill="#e9e9e9" d="M 170.5,174.5 C 168.735,175.461 166.735,175.795 164.5,175.5C 159.705,175.517 155.038,176.017 150.5,177C 155.218,174.485 160.218,172.652 165.5,171.5C 167.445,172.128 169.112,173.128 170.5,174.5 Z"/></g>
<g><path style="opacity:1" fill="#646464" d="M 170.5,174.5 C 171.043,174.56 171.376,174.893 171.5,175.5C 169.027,176.797 166.693,176.797 164.5,175.5C 166.735,175.795 168.735,175.461 170.5,174.5 Z"/></g>
<g><path style="opacity:1" fill="#ececec" d="M 190.5,177.5 C 193.572,177.183 196.572,177.516 199.5,178.5C 198.96,179.748 198.293,180.915 197.5,182C 198.956,183.745 200.289,185.578 201.5,187.5C 200.998,188.521 200.332,188.688 199.5,188C 198.333,186.833 197.167,185.667 196,184.5C 196.433,188.821 194.933,192.154 191.5,194.5C 187.333,191.797 183.833,188.464 181,184.5C 179.762,186.435 179.262,188.435 179.5,190.5C 175.943,188.016 171.943,187.016 167.5,187.5C 159.817,187.587 152.484,189.254 145.5,192.5C 145.167,192.167 144.833,191.833 144.5,191.5C 146.925,189.855 149.592,188.689 152.5,188C 165.56,185.405 178.227,181.905 190.5,177.5 Z"/></g>
<g><path style="opacity:1" fill="#f5f5f5" d="M 246.5,189.5 C 248.442,197.782 245.442,203.616 237.5,207C 220.061,213.129 202.061,216.463 183.5,217C 172.813,221.929 161.98,226.429 151,230.5C 150.508,229.451 150.674,228.451 151.5,227.5C 151,226.119 150,225.453 148.5,225.5C 145.284,226.795 141.951,227.462 138.5,227.5C 139.493,232.675 137.493,234.509 132.5,233C 126.806,231.011 123.973,227.178 124,221.5C 125.171,220.107 126.671,219.273 128.5,219C 122.521,217.072 118.354,218.905 116,224.5C 115.204,228.755 115.371,232.921 116.5,237C 115.551,237.617 114.718,237.451 114,236.5C 108.857,229.41 109.357,222.91 115.5,217C 119.474,214.398 123.807,212.898 128.5,212.5C 129.833,212.5 131.167,212.5 132.5,212.5C 132.216,214.415 132.549,216.081 133.5,217.5C 136.371,220.772 140.037,222.772 144.5,223.5C 146.441,223.196 148.107,222.363 149.5,221C 147.415,219.959 145.748,218.459 144.5,216.5C 144.977,215.522 145.643,214.689 146.5,214C 144.619,212.898 142.952,211.565 141.5,210C 141.905,209.055 142.572,208.388 143.5,208C 147.469,207.147 151.469,206.481 155.5,206C 176.669,198.624 198.335,193.291 220.5,190C 229.16,189.5 237.827,189.334 246.5,189.5 Z"/></g>
<g><path style="opacity:1" fill="#141414" d="M 214.5,192.5 C 219.751,192.572 221.751,195.072 220.5,200C 214.224,201.048 212.224,198.548 214.5,192.5 Z"/></g>
<g><path style="opacity:1" fill="#151515" d="M 227.5,193.5 C 228.978,193.238 230.311,193.571 231.5,194.5C 228.463,195.838 225.797,197.338 223.5,199C 224.665,197.008 225.998,195.175 227.5,193.5 Z"/></g>
<g><path style="opacity:1" fill="#111111" d="M 184.5,200.5 C 188.884,200.174 193.217,200.508 197.5,201.5C 191.5,202.5 185.5,203.5 179.5,204.5C 178.833,204.333 178.167,204.167 177.5,204C 179.713,202.384 182.047,201.217 184.5,200.5 Z"/></g>
<g><path style="opacity:1" fill="#e5e5e5" d="M 267.5,201.5 C 272.239,201.101 275.072,203.101 276,207.5C 275.586,207.957 275.086,208.291 274.5,208.5C 271.864,206.373 269.53,204.039 267.5,201.5 Z"/></g>
<g><path style="opacity:1" fill="#1b1b1b" d="M 174.5,205.5 C 177.001,205.511 177.168,206.178 175,207.5C 174.536,206.906 174.369,206.239 174.5,205.5 Z"/></g>
<g><path style="opacity:1" fill="#0d0d0d" d="M 164.5,208.5 C 167.908,207.828 170.575,208.828 172.5,211.5C 168.556,213.42 165.89,212.42 164.5,208.5 Z"/></g>
<g><path style="opacity:1" fill="#292929" d="M 159.5,208.5 C 160.043,208.56 160.376,208.893 160.5,209.5C 159.635,210.583 158.635,210.749 157.5,210C 158.416,209.722 159.082,209.222 159.5,208.5 Z"/></g>
<g><path style="opacity:1" fill="#181818" d="M 159.5,212.5 C 165.189,213.171 167.855,216.171 167.5,221.5C 164.024,219.343 160.357,217.676 156.5,216.5C 157.524,215.148 158.524,213.815 159.5,212.5 Z"/></g>
<g><path style="opacity:1" fill="#616161" d="M 128.5,212.5 C 129.919,211.549 131.585,211.216 133.5,211.5C 133.5,213.5 133.5,215.5 133.5,217.5C 132.549,216.081 132.216,214.415 132.5,212.5C 131.167,212.5 129.833,212.5 128.5,212.5 Z"/></g>
<g><path style="opacity:1" fill="#f8f8f8" d="M 238.5,379.5 C 240.857,381.557 243.524,381.89 246.5,380.5C 247.782,377.273 247.282,374.273 245,371.5C 243.167,369.667 241.333,367.833 239.5,366C 236.711,365.759 234.044,365.092 231.5,364C 227.833,361 224.167,358 220.5,355C 231.778,355.09 234.278,350.59 228,341.5C 225.333,338.833 222.667,336.167 220,333.5C 220.961,336.955 222.127,340.455 223.5,344C 223.167,344.833 222.833,345.667 222.5,346.5C 220.541,343.829 219.041,340.829 218,337.5C 213.175,331.171 209.675,331.504 207.5,338.5C 206.561,336.947 205.394,335.613 204,334.5C 199.94,336.137 197.273,334.803 196,330.5C 195.82,327.044 195.153,323.711 194,320.5C 190.14,316.64 186.306,312.806 182.5,309C 184.279,309.044 185.945,309.711 187.5,311C 194.957,312.232 196.79,309.732 193,303.5C 191.289,300.745 189.122,298.411 186.5,296.5C 184.016,298.483 181.683,300.65 179.5,303C 178.552,303.483 177.552,303.649 176.5,303.5C 176.631,298.319 176.631,293.319 176.5,288.5C 175.481,289.687 174.314,290.687 173,291.5C 172.938,295.148 173.105,298.815 173.5,302.5C 171.396,302.201 169.396,302.534 167.5,303.5C 171.685,308.518 176.351,313.018 181.5,317C 178.727,315.81 176.394,316.476 174.5,319C 173.167,319.667 171.833,319.667 170.5,319C 168.867,314.437 167.033,309.937 165,305.5C 162.749,303.623 160.249,302.123 157.5,301C 159.847,299.809 160.68,297.976 160,295.5C 157.443,292.808 154.609,290.475 151.5,288.5C 153.597,283.88 156.93,281.047 161.5,280C 163.351,281.684 165.018,283.517 166.5,285.5C 161.419,289.753 161.419,294.253 166.5,299C 167.448,299.483 168.448,299.649 169.5,299.5C 169.91,293.379 169.41,287.379 168,281.5C 164.11,276.874 159.277,275.04 153.5,276C 150.971,273.358 149.971,270.192 150.5,266.5C 151.833,266.5 153.167,266.5 154.5,266.5C 154.081,263.675 155.081,261.509 157.5,260C 160.77,259.005 164.103,258.172 167.5,257.5C 168.5,256.167 169.5,254.833 170.5,253.5C 168.348,249.363 166.348,245.197 164.5,241C 164.759,239.739 165.426,238.739 166.5,238C 171.229,237.727 175.896,237.061 180.5,236C 184.185,234.717 185.519,232.383 184.5,229C 187.833,228.667 191.167,228.333 194.5,228C 195.772,226.693 196.772,225.193 197.5,223.5C 201.697,225.295 206.031,226.128 210.5,226C 209.016,224.426 207.349,223.093 205.5,222C 212.416,218.843 219.749,217.176 227.5,217C 231.982,213.232 235.482,214.065 238,219.5C 239.132,227.918 238.299,236.085 235.5,244C 237.333,244.5 238.5,245.667 239,247.5C 239.765,254.864 239.598,262.197 238.5,269.5C 242.128,274.484 242.461,279.817 239.5,285.5C 240.689,286.429 242.022,286.762 243.5,286.5C 243.61,289.059 242.944,291.392 241.5,293.5C 240.391,292.41 239.391,292.41 238.5,293.5C 236.996,296.467 236.662,299.467 237.5,302.5C 238.322,299.171 240.155,296.505 243,294.5C 246.46,309.17 250.627,323.67 255.5,338C 254.167,340 252.833,342 251.5,344C 256.027,346.862 259.527,350.695 262,355.5C 262.249,354.376 262.749,353.376 263.5,352.5C 270.98,360.793 277.48,369.793 283,379.5C 287.202,383.367 291.035,387.533 294.5,392C 293.978,392.561 293.645,393.228 293.5,394C 297.101,401.269 302.435,406.935 309.5,411C 317.842,415.339 326.509,418.839 335.5,421.5C 342.509,431.763 352.009,435.763 364,433.5C 362.886,435.669 363.386,437.502 365.5,439C 372.402,440.608 379.069,442.774 385.5,445.5C 381.54,448.204 377.206,449.038 372.5,448C 361.444,445.473 350.778,441.806 340.5,437C 331.832,434.107 323.832,435.274 316.5,440.5C 316.167,440.333 315.833,440.167 315.5,440C 317.954,438.26 319.454,436.093 320,433.5C 317.064,435.856 314.231,438.356 311.5,441C 310.5,441.667 309.5,441.667 308.5,441C 306.5,438.333 304.5,435.667 302.5,433C 297.894,434.235 293.727,433.402 290,430.5C 289.493,429.004 289.993,427.837 291.5,427C 290.376,426.751 289.376,426.251 288.5,425.5C 289.833,423.833 291.167,422.167 292.5,420.5C 287.533,419.671 282.533,419.171 277.5,419C 270.518,418.848 265.518,415.682 262.5,409.5C 263,408.119 264,407.453 265.5,407.5C 268.197,408.232 270.864,409.066 273.5,410C 272.09,410.368 271.09,411.201 270.5,412.5C 273.39,415.771 277.057,417.104 281.5,416.5C 283.5,416.167 285.5,415.833 287.5,415.5C 281.278,408.11 274.278,401.61 266.5,396C 252.469,389.317 238.469,382.651 224.5,376C 222.185,374.632 222.185,373.799 224.5,373.5C 229.446,374.976 234.112,376.976 238.5,379.5 Z"/></g>
<g><path style="opacity:1" fill="#161616" d="M 230.5,229.5 C 231.947,230.134 232.613,231.301 232.5,233C 231.912,235.851 231.245,238.685 230.5,241.5C 230.833,242.167 231.167,242.833 231.5,243.5C 232.52,240.401 233.686,237.401 235,234.5C 235.919,240.757 233.919,245.757 229,249.5C 228.055,249.095 227.388,248.428 227,247.5C 225.636,240.957 226.802,234.957 230.5,229.5 Z"/></g>
<g><path style="opacity:1" fill="#dadada" d="M 168.5,230.5 C 170.337,230.639 170.67,231.306 169.5,232.5C 168.702,232.043 168.369,231.376 168.5,230.5 Z"/></g>
<g><path style="opacity:1" fill="#070707" d="M 424.5,233.5 C 426.144,233.286 427.644,233.62 429,234.5C 429.333,271.833 429.667,309.167 430,346.5C 432.85,352.472 437.683,355.306 444.5,355C 446.353,358.447 445.353,360.28 441.5,360.5C 429.845,359.516 418.179,359.516 406.5,360.5C 406.215,358.712 406.548,357.045 407.5,355.5C 410.43,354.453 412.93,352.787 415,350.5C 415.667,319.167 415.667,287.833 415,256.5C 413.01,252.51 409.843,250.01 405.5,249C 402.956,247.225 402.956,245.392 405.5,243.5C 412.338,240.917 418.671,237.584 424.5,233.5 Z"/></g>
<g><path style="opacity:1" fill="#070707" d="M 627.5,233.5 C 629.722,233.178 631.556,233.845 633,235.5C 633.5,264.165 633.667,292.831 633.5,321.5C 635.308,321.509 636.975,321.009 638.5,320C 644.389,314.476 650.556,309.31 657,304.5C 658.187,302.956 658.52,301.289 658,299.5C 655.263,298.44 652.43,297.606 649.5,297C 648.167,295.333 648.167,293.667 649.5,292C 662.475,292.211 675.475,292.545 688.5,293C 690.527,294.396 690.86,296.062 689.5,298C 683.77,298.973 678.104,300.306 672.5,302C 668.5,304.667 664.5,307.333 660.5,310C 657.897,312.094 655.897,314.594 654.5,317.5C 660.911,329.128 668.911,339.628 678.5,349C 683.148,352.745 688.482,354.411 694.5,354C 695.833,356 695.833,358 694.5,360C 686.171,360.857 677.838,361.191 669.5,361C 659.491,350.507 650.491,339.341 642.5,327.5C 638.951,328.559 636.117,330.559 634,333.5C 633.333,338.833 633.333,344.167 634,349.5C 634.465,350.931 635.299,352.097 636.5,353C 640.54,353.909 644.54,354.909 648.5,356C 649.833,357.333 649.833,358.667 648.5,360C 636.983,360.242 625.483,360.742 614,361.5C 608.156,360.996 607.323,358.83 611.5,355C 616,354.5 618.5,352 619,347.5C 619.667,317.5 619.667,287.5 619,257.5C 617.181,252.664 613.681,249.831 608.5,249C 605.936,246.724 606.27,244.724 609.5,243C 616.29,241.107 622.29,237.941 627.5,233.5 Z"/></g>
<g><path style="opacity:1" fill="#dedede" d="M 122.5,233.5 C 124.355,233.272 125.188,233.939 125,235.5C 122.366,236.692 121.532,236.026 122.5,233.5 Z"/></g>
<g><path style="opacity:1" fill="#e0e0e0" d="M 148.5,241.5 C 152.835,241.917 157.168,242.417 161.5,243C 162.554,244.388 162.72,245.888 162,247.5C 159.037,249.244 155.871,249.744 152.5,249C 152.043,248.586 151.709,248.086 151.5,247.5C 153.078,246.702 154.744,246.202 156.5,246C 154.412,244.97 152.245,244.137 150,243.5C 148.97,243.164 148.47,242.497 148.5,241.5 Z"/></g>
<g><path style="opacity:1" fill="#040404" d="M 308.5,242.5 C 312.835,242.917 317.168,243.417 321.5,244C 343.848,244.102 366.181,244.269 388.5,244.5C 386.868,251.71 386.035,259.044 386,266.5C 384.062,267.86 382.396,267.527 381,265.5C 379.387,260.087 376.22,255.92 371.5,253C 360.21,251.478 348.877,251.144 337.5,252C 337,252.5 336.5,253 336,253.5C 335.177,268.075 335.344,282.575 336.5,297C 345.51,297.285 354.51,296.952 363.5,296C 364.701,295.097 365.535,293.931 366,292.5C 366.241,289.711 366.908,287.044 368,284.5C 369.667,283.167 371.333,283.167 373,284.5C 372.783,295.803 372.449,307.136 372,318.5C 370.301,319.406 368.467,319.739 366.5,319.5C 366.385,313.767 364.051,309.267 359.5,306C 351.507,305.5 343.507,305.334 335.5,305.5C 335.333,319.837 335.5,334.171 336,348.5C 337.109,350.815 338.943,352.315 341.5,353C 345.114,353.945 348.781,354.612 352.5,355C 355.167,356.667 355.167,358.333 352.5,360C 350.5,360.167 348.5,360.333 346.5,360.5C 333.592,359.579 320.759,359.245 308,359.5C 307.289,357.633 307.789,356.133 309.5,355C 315.826,355.009 319.326,351.842 320,345.5C 320.667,316.5 320.667,287.5 320,258.5C 317.603,253.104 313.603,249.438 308,247.5C 307.616,245.803 307.782,244.137 308.5,242.5 Z"/></g>
<g><path style="opacity:1" fill="#dddddd" d="M 137.5,246.5 C 139.977,246.051 141.977,246.717 143.5,248.5C 141.84,252.079 139.673,252.412 137,249.5C 136.53,248.423 136.697,247.423 137.5,246.5 Z"/></g>
<g><path style="opacity:1" fill="#292929" d="M 190.5,247.5 C 193.932,247.248 194.932,248.581 193.5,251.5C 191.712,250.717 190.712,249.384 190.5,247.5 Z"/></g>
<g><path style="opacity:1" fill="#151515" d="M 182.5,247.5 C 185.019,250.447 188.019,252.947 191.5,255C 190.692,255.308 190.025,255.808 189.5,256.5C 190.263,257.719 191.263,258.719 192.5,259.5C 189.196,259.773 186.363,258.44 184,255.5C 183.605,252.793 183.105,250.127 182.5,247.5 Z"/></g>
<g><path style="opacity:1" fill="#dcdcdc" d="M 145.5,251.5 C 146.978,251.238 148.311,251.571 149.5,252.5C 148.833,252.833 148.167,253.167 147.5,253.5C 146.287,253.253 145.62,252.586 145.5,251.5 Z"/></g>
<g><path style="opacity:1" fill="#b5b5b5" d="M 160.5,251.5 C 162.337,251.639 162.67,252.306 161.5,253.5C 160.702,253.043 160.369,252.376 160.5,251.5 Z"/></g>
<g><path style="opacity:1" fill="#dddddd" d="M 120.5,254.5 C 121.077,253.227 121.743,253.227 122.5,254.5C 122.03,255.463 121.363,255.463 120.5,254.5 Z"/></g>
<g><path style="opacity:1" fill="#e5e5e5" d="M 141.5,254.5 C 142.675,254.281 143.675,254.614 144.5,255.5C 142.948,256.798 141.948,256.465 141.5,254.5 Z"/></g>
<g><path style="opacity:1" fill="#9a9a9a" d="M 117.5,256.5 C 119.337,256.639 119.67,257.306 118.5,258.5C 117.702,258.043 117.369,257.376 117.5,256.5 Z"/></g>
<g><path style="opacity:1" fill="#161616" d="M 174.5,261.5 C 181.168,263.176 186.835,266.509 191.5,271.5C 191,271.833 190.5,272.167 190,272.5C 186.637,270.934 183.137,269.768 179.5,269C 177.192,266.872 175.526,264.372 174.5,261.5 Z"/></g>
<g><path style="opacity:1" fill="#1f1f1f" d="M 178.5,260.5 C 184.279,260.183 189.612,262.017 194.5,266C 189.135,264.495 183.801,262.662 178.5,260.5 Z"/></g>
<g><path style="opacity:1" fill="#ebebeb" d="M 136.5,264.5 C 137.274,263.853 138.274,263.52 139.5,263.5C 141.319,263.342 142.652,264.009 143.5,265.5C 141.01,266.632 138.676,266.299 136.5,264.5 Z"/></g>
<g><path style="opacity:1" fill="#4e4e4e" d="M 223.5,260.5 C 225.416,261.665 226.249,263.332 226,265.5C 224.628,264.09 223.795,262.423 223.5,260.5 Z"/></g>
<g><path style="opacity:1" fill="#161616" d="M 168.5,265.5 C 173.473,267.298 177.806,270.131 181.5,274C 179.833,274.667 178.167,274.667 176.5,274C 173.481,271.362 170.815,268.529 168.5,265.5 Z"/></g>
<g><path style="opacity:1" fill="#dadada" d="M 125.5,268.5 C 127.634,269.703 128.968,271.537 129.5,274C 125.266,274.267 123.933,272.434 125.5,268.5 Z"/></g>
<g><path style="opacity:1" fill="#dedede" d="M 136.5,269.5 C 139.864,268.789 142.197,269.956 143.5,273C 139.795,274.313 137.462,273.146 136.5,269.5 Z"/></g>
<g><path style="opacity:1" fill="#131313" d="M 167.5,271.5 C 167.56,270.957 167.893,270.624 168.5,270.5C 171.086,272.043 173.586,273.709 176,275.5C 176.769,278.099 176.602,280.599 175.5,283C 174.101,283.595 172.768,283.428 171.5,282.5C 169.183,279.683 166.683,277.016 164,274.5C 163.333,273.833 163.333,273.167 164,272.5C 165.973,273.64 167.807,274.973 169.5,276.5C 170.307,274.422 169.641,272.755 167.5,271.5 Z"/></g>
<g><path style="opacity:1" fill="#dcdcdc" d="M 136.5,274.5 C 139.097,274.533 140.097,275.533 139.5,277.5C 137.787,277.121 136.787,276.121 136.5,274.5 Z"/></g>
<g><path style="opacity:1" fill="#1b1b1b" d="M 183.5,278.5 C 184.837,279.315 185.837,280.482 186.5,282C 184.522,281.967 183.522,280.8 183.5,278.5 Z"/></g>
<g><path style="opacity:1" fill="#151515" d="M 221.5,280.5 C 223.28,281.99 223.946,283.99 223.5,286.5C 224.822,286.33 225.989,286.663 227,287.5C 227.1,291.202 227.933,294.702 229.5,298C 229,299.5 228.5,301 228,302.5C 226.817,303.731 225.651,303.731 224.5,302.5C 219.188,295.715 218.188,288.382 221.5,280.5 Z"/></g>
<g><path style="opacity:1" fill="#303030" d="M 236.5,281.5 C 237.497,281.47 238.164,281.97 238.5,283C 238.022,285.226 237.355,287.392 236.5,289.5C 235.795,286.911 235.795,284.244 236.5,281.5 Z"/></g>
<g><path style="opacity:1" fill="#e2e2e2" d="M 129.5,281.5 C 134.774,287.482 137.607,294.482 138,302.5C 137.346,301.304 136.846,301.304 136.5,302.5C 140.074,310.393 143.74,318.227 147.5,326C 147.167,326.167 146.833,326.333 146.5,326.5C 143.124,323.286 140.29,319.619 138,315.5C 134.312,305.593 130.145,295.927 125.5,286.5C 125.833,286.167 126.167,285.833 126.5,285.5C 128.886,287.731 130.719,290.397 132,293.5C 132.167,293 132.333,292.5 132.5,292C 130.954,288.649 129.954,285.149 129.5,281.5 Z"/></g>
<g><path style="opacity:1" fill="#111111" d="M 190.5,284.5 C 192.959,288.738 195.459,293.072 198,297.5C 197.965,293.558 196.798,289.891 194.5,286.5C 194.833,286.167 195.167,285.833 195.5,285.5C 200.594,289.258 204.594,293.925 207.5,299.5C 206.617,300.548 205.95,301.715 205.5,303C 206.187,304.162 206.353,305.328 206,306.5C 205.221,305.272 204.221,304.272 203,303.5C 201.832,304.509 200.665,305.509 199.5,306.5C 194.318,300.126 191.318,292.793 190.5,284.5 Z"/></g>
<g><path style="opacity:1" fill="#212121" d="M 179.5,288.5 C 181.344,289.204 181.844,290.537 181,292.5C 179.812,291.437 179.312,290.103 179.5,288.5 Z"/></g>
<g><path style="opacity:1" fill="#050505" d="M 484.5,290.5 C 490.925,290.13 497.258,290.63 503.5,292C 507.219,293.263 509.719,295.763 511,299.5C 511.333,315.167 511.667,330.833 512,346.5C 512.374,347.416 512.874,348.25 513.5,349C 517.177,349.108 520.843,349.108 524.5,349C 525.935,351.267 525.602,353.267 523.5,355C 518.122,359.015 512.122,361.015 505.5,361C 503.284,358.447 500.784,356.28 498,354.5C 492.996,357.057 487.829,359.224 482.5,361C 472.843,363.62 465.009,361.12 459,353.5C 456.105,346.172 457.272,339.672 462.5,334C 472.037,327.598 482.537,323.765 494,322.5C 495.605,321.899 496.938,320.899 498,319.5C 498.667,314.833 498.667,310.167 498,305.5C 495.193,299.223 490.36,296.723 483.5,298C 480.469,300.559 478.302,303.726 477,307.5C 473.257,311.259 468.757,312.426 463.5,311C 460.431,306.675 461.098,303.008 465.5,300C 471.647,296.26 477.98,293.093 484.5,290.5 Z"/></g>
<g><path style="opacity:1" fill="#080808" d="M 557.5,290.5 C 567.315,289.927 576.982,290.76 586.5,293C 587.956,297.935 589.289,302.935 590.5,308C 589.038,310.201 587.038,310.867 584.5,310C 579.117,300.642 571.117,296.642 560.5,298C 554.845,299.875 553.011,303.708 555,309.5C 555.465,310.931 556.299,312.097 557.5,313C 567.415,317.63 577.082,322.63 586.5,328C 593.605,338.178 592.939,347.845 584.5,357C 569.789,364.084 554.955,364.25 540,357.5C 539.333,352.167 539.333,346.833 540,341.5C 540.561,340.978 541.228,340.645 542,340.5C 544.801,342.974 547.301,345.807 549.5,349C 557.917,355.038 566.917,356.038 576.5,352C 579.674,346.72 579.008,342.053 574.5,338C 566.072,333.952 557.739,329.619 549.5,325C 541.979,317.657 540.479,309.157 545,299.5C 548.651,295.609 552.818,292.609 557.5,290.5 Z"/></g>
<g><path style="opacity:1" fill="#1f1f1f" d="M 187.5,292.5 C 188.5,292.5 189.5,292.5 190.5,292.5C 190.386,298.764 189.386,298.764 187.5,292.5 Z"/></g>
<g><path style="opacity:1" fill="#aaaaaa" d="M 152.5,296.5 C 153.675,296.281 154.675,296.614 155.5,297.5C 153.948,298.798 152.948,298.465 152.5,296.5 Z"/></g>
<g><path style="opacity:1" fill="#ededed" d="M 154.5,306.5 C 155.946,305.387 157.613,305.22 159.5,306C 157.977,307.788 156.31,307.955 154.5,306.5 Z"/></g>
<g><path style="opacity:1" fill="#bbbbbb" d="M 175.5,306.5 C 176.675,306.281 177.675,306.614 178.5,307.5C 176.948,308.798 175.948,308.465 175.5,306.5 Z"/></g>
<g><path style="opacity:1" fill="#f2f2f2" d="M 184.5,317.5 C 186.153,316.201 187.653,316.534 189,318.5C 190.036,321.753 190.703,325.086 191,328.5C 192.834,331.909 195.167,334.909 198,337.5C 199.009,339.025 199.509,340.692 199.5,342.5C 190.65,339.413 181.984,335.746 173.5,331.5C 171.054,328.609 169.721,325.275 169.5,321.5C 174.86,322.422 180.026,324.089 185,326.5C 186.732,326.266 187.566,325.266 187.5,323.5C 186.999,321.164 185.999,319.164 184.5,317.5 Z"/></g>
<g><path style="opacity:1" fill="#eeeeee" d="M 136.5,320.5 C 137.189,319.226 138.023,319.226 139,320.5C 143.527,328.221 147.527,336.221 151,344.5C 158.83,353.519 166.163,362.853 173,372.5C 174.732,376.363 176.066,380.363 177,384.5C 179.21,388.055 182.377,389.888 186.5,390C 188.207,393.248 190.04,396.415 192,399.5C 196.89,403.081 201.723,407.748 206.5,413.5C 211.481,414.407 215.648,416.74 219,420.5C 220.009,422.025 220.509,423.692 220.5,425.5C 215.643,425.492 211.31,423.992 207.5,421C 198.712,413.179 190.212,405.012 182,396.5C 176.477,388.679 171.644,381.012 167.5,373.5C 155.045,357.052 144.712,339.385 136.5,320.5 Z"/></g>
<g><path style="opacity:1" fill="#212121" d="M 203.5,325.5 C 205.337,325.639 205.67,326.306 204.5,327.5C 203.702,327.043 203.369,326.376 203.5,325.5 Z"/></g>
<g><path style="opacity:1" fill="#f8f8f8" d="M 490.5,328.5 C 493.119,328.232 495.619,328.565 498,329.5C 502.755,348.745 495.589,355.911 476.5,351C 470.968,345.036 471.302,339.369 477.5,334C 481.741,331.651 486.075,329.818 490.5,328.5 Z"/></g>
<g><path style="opacity:1" fill="#1f1f1f" d="M 246.5,330.5 C 248.411,330.574 249.578,331.574 250,333.5C 250.667,335.5 250.667,337.5 250,339.5C 248.278,336.721 247.111,333.721 246.5,330.5 Z"/></g>
<g><path style="opacity:1" fill="#d3d3d3" d="M 168.5,333.5 C 169.675,333.281 170.675,333.614 171.5,334.5C 169.948,335.798 168.948,335.465 168.5,333.5 Z"/></g>
<g><path style="opacity:1" fill="#d4d4d4" d="M 168.5,345.5 C 170.707,344.13 172.374,344.797 173.5,347.5C 173.167,347.833 172.833,348.167 172.5,348.5C 171.148,347.476 169.815,346.476 168.5,345.5 Z"/></g>
<g><path style="opacity:1" fill="#c9c9c9" d="M 214.5,344.5 C 216.912,344.244 218.579,345.244 219.5,347.5C 216.516,348.838 214.849,347.838 214.5,344.5 Z"/></g>
<g><path style="opacity:1" fill="#f0f0f0" d="M 193.5,346.5 C 199.028,347.549 204.361,349.215 209.5,351.5C 207.322,352.657 205.322,353.99 203.5,355.5C 205.167,356.667 206.833,357.833 208.5,359C 206.5,359.333 204.5,359.667 202.5,360C 206.416,361.764 209.083,364.597 210.5,368.5C 213.739,370.149 215.239,372.816 215,376.5C 216.167,377.667 217.333,378.833 218.5,380C 215.298,379.914 212.298,378.914 209.5,377C 203.46,373.872 197.626,370.372 192,366.5C 191.333,365.833 191.333,365.167 192,364.5C 193.987,366.088 196.154,366.921 198.5,367C 195.5,364.5 192.5,362 189.5,359.5C 190.397,359.331 191.397,358.998 192.5,358.5C 191.027,356.605 189.36,354.939 187.5,353.5C 188.729,352.719 190.062,352.219 191.5,352C 190.007,350.844 190.174,350.01 192,349.5C 193.162,350.187 194.328,350.353 195.5,350C 194.177,349.184 193.511,348.017 193.5,346.5 Z"/></g>
<g><path style="opacity:1" fill="#1f1f1f" d="M 254.5,350.5 C 255.598,351.601 255.765,352.934 255,354.5C 253.232,353.318 253.065,351.985 254.5,350.5 Z"/></g>
<g><path style="opacity:1" fill="#e4e4e4" d="M 177.5,352.5 C 177.735,351.903 178.235,351.57 179,351.5C 181.257,352.225 182.591,353.558 183,355.5C 181.22,354.361 179.386,353.361 177.5,352.5 Z"/></g>
<g><path style="opacity:1" fill="#b4b4b4" d="M 168.5,356.5 C 171.323,357.148 172.823,358.814 173,361.5C 171.242,359.917 169.742,358.25 168.5,356.5 Z"/></g>
<g><path style="opacity:1" fill="#1d1d1d" d="M 265.5,364.5 C 268.157,365.479 268.823,367.146 267.5,369.5C 266.05,368.15 265.383,366.484 265.5,364.5 Z"/></g>
<g><path style="opacity:1" fill="#9f9f9f" d="M 238.5,379.5 C 238.639,377.663 239.306,377.33 240.5,378.5C 240.043,379.298 239.376,379.631 238.5,379.5 Z"/></g>
<g><path style="opacity:1" fill="#191919" d="M 275.5,379.5 C 279.628,381.981 282.294,385.648 283.5,390.5C 283.167,390.833 282.833,391.167 282.5,391.5C 278.626,388.422 276.293,384.422 275.5,379.5 Z"/></g>
<g><path style="opacity:1" fill="#cecece" d="M 203.5,382.5 C 205.364,381.207 207.364,381.207 209.5,382.5C 207.54,383.519 205.54,383.519 203.5,382.5 Z"/></g>
<g><path style="opacity:1" fill="#dbdbdb" d="M 222.5,383.5 C 222.56,382.957 222.893,382.624 223.5,382.5C 226.701,383.453 229.701,384.786 232.5,386.5C 228.858,387.083 225.525,386.083 222.5,383.5 Z"/></g>
<g><path style="opacity:1" fill="#d2d2d2" d="M 212.5,385.5 C 214.185,384.156 215.852,384.323 217.5,386C 215.735,386.64 214.068,386.473 212.5,385.5 Z"/></g>
<g><path style="opacity:1" fill="#ebebeb" d="M 205.5,387.5 C 214.739,388.358 223.406,391.025 231.5,395.5C 227.228,398.256 222.561,399.089 217.5,398C 214.595,396.714 211.595,395.714 208.5,395C 205.587,393.041 204.587,390.541 205.5,387.5 Z"/></g>
<g><path style="opacity:1" fill="#e2e2e2" d="M 230.5,389.5 C 237.109,391.806 243.443,394.64 249.5,398C 241.124,399.475 234.791,396.642 230.5,389.5 Z"/></g>
<g><path style="opacity:1" fill="#d6d6d6" d="M 240.5,389.5 C 244.673,389.289 248.339,390.456 251.5,393C 254.371,393.118 257.038,393.784 259.5,395C 253.028,396.253 247.028,395.086 241.5,391.5C 240.702,391.043 240.369,390.376 240.5,389.5 Z"/></g>
<g><path style="opacity:1" fill="#cccccc" d="M 300.5,396.5 C 304.31,397.754 304.31,398.754 300.5,399.5C 300.5,398.5 300.5,397.5 300.5,396.5 Z"/></g>
<g><path style="opacity:1" fill="#a1a1a1" d="M 215.5,402.5 C 216.849,401.203 218.182,401.37 219.5,403C 218.072,403.579 216.738,403.412 215.5,402.5 Z"/></g>
<g><path style="opacity:1" fill="#d1d1d1" d="M 242.5,400.5 C 246.053,401.517 249.386,403.017 252.5,405C 247.987,405.907 244.654,404.407 242.5,400.5 Z"/></g>
<g><path style="opacity:1" fill="#cacaca" d="M 307.5,405.5 C 308.849,404.203 310.182,404.37 311.5,406C 310.072,406.579 308.738,406.412 307.5,405.5 Z"/></g>
<g><path style="opacity:1" fill="#dcdcdc" d="M 242.5,411.5 C 246.83,410.956 250.83,412.289 254.5,415.5C 250.051,415.963 246.051,414.63 242.5,411.5 Z"/></g>
<g><path style="opacity:1" fill="#d9d9d9" d="M 253.5,410.5 C 254.675,410.281 255.675,410.614 256.5,411.5C 254.948,412.798 253.948,412.465 253.5,410.5 Z"/></g>
<g><path style="opacity:1" fill="#ececec" d="M 235.5,413.5 C 236.708,412.218 238.042,412.218 239.5,413.5C 238.192,414.626 236.858,414.626 235.5,413.5 Z"/></g>
<g><path style="opacity:1" fill="#acacac" d="M 422.5,419.5 C 424.465,419.948 424.798,420.948 423.5,422.5C 422.614,421.675 422.281,420.675 422.5,419.5 Z"/></g>
<g><path style="opacity:1" fill="#dcdcdc" d="M 250.5,423.5 C 252.035,422.212 253.701,422.212 255.5,423.5C 253.905,424.434 252.239,424.434 250.5,423.5 Z"/></g>
<g><path style="opacity:1" fill="#c0c0c0" d="M 234.5,421.5 C 238.278,422.311 238.111,423.311 234,424.5C 233.5,424.167 233,423.833 232.5,423.5C 233.243,422.818 233.909,422.151 234.5,421.5 Z"/></g>
<g><path style="opacity:1" fill="#d1d1d1" d="M 259.5,424.5 C 261.977,424.051 263.977,424.717 265.5,426.5C 262.707,427.972 260.707,427.306 259.5,424.5 Z"/></g>
<g><path style="opacity:1" fill="#d4d4d4" d="M 282.5,426.5 C 284.288,426.215 285.955,426.548 287.5,427.5C 285.737,429.936 283.737,430.103 281.5,428C 282.056,427.617 282.389,427.117 282.5,426.5 Z"/></g>
<g><path style="opacity:1" fill="#e4e4e4" d="M 405.5,428.5 C 408.797,428.329 409.131,428.995 406.5,430.5C 405.702,430.043 405.369,429.376 405.5,428.5 Z"/></g>
<g><path style="opacity:1" fill="#9c9c9c" d="M 231.5,429.5 C 233.337,429.639 233.67,430.306 232.5,431.5C 231.702,431.043 231.369,430.376 231.5,429.5 Z"/></g>
<g><path style="opacity:1" fill="#dcdcdc" d="M 239.5,432.5 C 241.337,432.639 241.67,433.306 240.5,434.5C 239.702,434.043 239.369,433.376 239.5,432.5 Z"/></g>
<g><path style="opacity:1" fill="#e7e7e7" d="M 234.5,434.5 C 253.854,443.675 273.521,452.175 293.5,460C 305.299,461.772 317.132,463.272 329,464.5C 342.105,465.27 355.271,465.27 368.5,464.5C 372.46,464.295 376.127,465.128 379.5,467C 368.254,469.196 356.921,469.862 345.5,469C 325.092,466.992 304.759,464.325 284.5,461C 265.872,455.684 248.206,448.184 231.5,438.5C 230.167,437.833 230.167,437.167 231.5,436.5C 240.554,441.694 249.888,446.361 259.5,450.5C 259.833,450.167 260.167,449.833 260.5,449.5C 253.531,446.016 246.531,442.516 239.5,439C 237.308,437.933 235.642,436.433 234.5,434.5 Z"/></g>
<g><path style="opacity:1" fill="#dbdbdb" d="M 249.5,435.5 C 250.978,435.238 252.311,435.571 253.5,436.5C 251.537,439.194 250.203,438.861 249.5,435.5 Z"/></g>
<g><path style="opacity:1" fill="#f3f3f3" d="M 335.5,439.5 C 336.822,439.33 337.989,439.663 339,440.5C 339.667,442.833 339.667,445.167 339,447.5C 338.261,448.574 337.261,449.241 336,449.5C 334.832,448.491 333.665,447.491 332.5,446.5C 328.498,449.498 327.332,448.831 329,444.5C 331.352,442.97 333.519,441.303 335.5,439.5 Z"/></g>
<g><path style="opacity:1" fill="#dadada" d="M 328.5,440.5 C 329.773,441.077 329.773,441.743 328.5,442.5C 327.549,443.326 326.549,443.492 325.5,443C 326.571,442.148 327.571,441.315 328.5,440.5 Z"/></g>
<g><path style="opacity:1" fill="#e9e9e9" d="M 409.5,447.5 C 404.833,446.833 400.167,446.167 395.5,445.5C 396.058,444.21 397.058,443.377 398.5,443C 409.353,442.031 420.019,443.031 430.5,446C 430.167,446.333 429.833,446.667 429.5,447C 422.894,448.829 416.227,448.996 409.5,447.5 Z"/></g>
<g><path style="opacity:1" fill="#9e9e9e" d="M 319.5,442.5 C 321.337,442.639 321.67,443.306 320.5,444.5C 319.702,444.043 319.369,443.376 319.5,442.5 Z"/></g>
<g><path style="opacity:1" fill="#e7e7e7" d="M 346.5,442.5 C 347.675,442.281 348.675,442.614 349.5,443.5C 347.81,446.024 345.643,448.024 343,449.5C 342.308,448.975 341.808,448.308 341.5,447.5C 342.882,445.451 344.548,443.785 346.5,442.5 Z"/></g>
<g><path style="opacity:1" fill="#929292" d="M 456.5,443.5 C 457.376,443.369 458.043,443.702 458.5,444.5C 456.192,445.873 455.525,445.54 456.5,443.5 Z"/></g>
<g><path style="opacity:1" fill="#e0e0e0" d="M 437.5,444.5 C 439.973,444.947 440.14,445.947 438,447.5C 437.517,446.552 437.351,445.552 437.5,444.5 Z"/></g>
<g><path style="opacity:1" fill="#e0e0e0" d="M 472.5,444.5 C 476.226,444.177 479.893,444.511 483.5,445.5C 477.238,447.439 470.905,447.772 464.5,446.5C 467.306,445.832 469.972,445.166 472.5,444.5 Z"/></g>
<g><path style="opacity:1" fill="#efefef" d="M 267.5,446.5 C 268.675,446.281 269.675,446.614 270.5,447.5C 268.948,448.798 267.948,448.465 267.5,446.5 Z"/></g>
<g><path style="opacity:1" fill="#aeaeae" d="M 395.5,445.5 C 400.167,446.167 404.833,446.833 409.5,447.5C 404.456,447.827 399.456,447.494 394.5,446.5C 394.624,445.893 394.957,445.56 395.5,445.5 Z"/></g>
<g><path style="opacity:1" fill="#e0e0e0" d="M 354.5,447.5 C 355.675,447.281 356.675,447.614 357.5,448.5C 353.216,452.836 352.216,452.503 354.5,447.5 Z"/></g>
<g><path style="opacity:1" fill="#ececec" d="M 308.5,448.5 C 310.337,448.639 310.67,449.306 309.5,450.5C 308.702,450.043 308.369,449.376 308.5,448.5 Z"/></g>
<g><path style="opacity:1" fill="#dcdcdc" d="M 346.5,448.5 C 350.099,448.262 350.433,449.262 347.5,451.5C 342.517,452.42 342.183,451.42 346.5,448.5 Z"/></g>
<g><path style="opacity:1" fill="#9a9a9a" d="M 314.5,449.5 C 316.337,449.639 316.67,450.306 315.5,451.5C 314.702,451.043 314.369,450.376 314.5,449.5 Z"/></g>
<g><path style="opacity:1" fill="#dddddd" d="M 278.5,451.5 C 278.735,450.903 279.235,450.57 280,450.5C 287.357,452.699 294.857,454.199 302.5,455C 304.167,456 305.833,457 307.5,458C 297.234,458.517 287.567,456.35 278.5,451.5 Z"/></g>
<g><path style="opacity:1" fill="#dedede" d="M 357.5,451.5 C 360.028,452.518 359.861,453.518 357,454.5C 356.5,454.167 356,453.833 355.5,453.5C 356.243,452.818 356.909,452.151 357.5,451.5 Z"/></g>
<g><path style="opacity:1" fill="#d4d4d4" d="M 364.5,450.5 C 366.842,450.775 366.842,451.608 364.5,453C 363.5,453.667 362.5,453.667 361.5,453C 362.571,452.148 363.571,451.315 364.5,450.5 Z"/></g>
<g><path style="opacity:1" fill="#dcdcdc" d="M 370.5,450.5 C 372.028,450.517 372.528,451.184 372,452.5C 370.027,453.64 368.193,454.973 366.5,456.5C 365.479,455.998 365.312,455.332 366,454.5C 367.397,452.93 368.897,451.596 370.5,450.5 Z"/></g>
<g><path style="opacity:1" fill="#e2e2e2" d="M 384.5,465.5 C 385.675,465.281 386.675,465.614 387.5,466.5C 385.948,467.798 384.948,467.465 384.5,465.5 Z"/></g>
</svg>
