<?xml version="1.0" encoding="UTF-8"?>
<!DOCTYPE svg PUBLIC "-//W3C//DTD SVG 1.1//EN" "http://www.w3.org/Graphics/SVG/1.1/DTD/svg11.dtd">
<svg xmlns="http://www.w3.org/2000/svg" version="1.1" width="2360px" height="2660px" style="shape-rendering:geometricPrecision; text-rendering:geometricPrecision; image-rendering:optimizeQuality; fill-rule:evenodd; clip-rule:evenodd" xmlns:xlink="http://www.w3.org/1999/xlink">
<g><path style="opacity:0.999" fill="#d4b830" d="M 92.5,99.5 C 822.836,99.1781 1553.17,99.5115 2283.5,100.5C 2283.67,133.502 2283.5,166.502 2283,199.5C 2218.88,910.189 2154.71,1621.36 2090.5,2333C 2090.54,2334.76 2090.88,2336.43 2091.5,2338C 2090.03,2340.24 2089.03,2342.74 2088.5,2345.5C 1789.03,2430.24 1489.53,2514.91 1190,2599.5C 891.915,2515.36 593.915,2431.03 296,2346.5C 246.13,1797.27 196.297,1248.43 146.5,700C 127.988,499.871 109.988,299.705 92.5,99.5 Z M 1803.5,582.5 C 1863.5,582.5 1923.5,582.5 1983.5,582.5C 1977.34,669.71 1971.34,756.71 1965.5,843.5C 1809.83,844.111 1654.17,844.778 1498.5,845.5C 1498.5,973.833 1498.5,1102.17 1498.5,1230.5C 1643.88,1214.46 1789.21,1198.12 1934.5,1181.5C 1934.83,1183 1935.17,1184.5 1935.5,1186C 1915.86,1424.18 1896.19,1662.35 1876.5,1900.5C 1679.52,1951.33 1482.68,2002.66 1286,2054.5C 1283.67,1968.56 1281.83,1881.9 1280.5,1794.5C 1423.23,1756.98 1565.9,1719.15 1708.5,1681C 1711.56,1609.92 1713.9,1538.75 1715.5,1467.5C 1573.82,1491.39 1432.15,1515.39 1290.5,1539.5C 1287.1,1221.65 1283.76,903.65 1280.5,585.5C 1455,584.855 1629.33,583.855 1803.5,582.5 Z M 1384.5,2370.5 C 1382.49,2371.92 1380.15,2372.59 1377.5,2372.5C 1379.51,2371.08 1381.85,2370.41 1384.5,2370.5 Z M 1373.5,2373.5 C 1371.49,2374.92 1369.15,2375.59 1366.5,2375.5C 1368.51,2374.08 1370.85,2373.41 1373.5,2373.5 Z M 1362.5,2376.5 C 1360.49,2377.92 1358.15,2378.59 1355.5,2378.5C 1357.51,2377.08 1359.85,2376.41 1362.5,2376.5 Z M 1355.5,2378.5 C 1352.15,2380.26 1348.48,2381.26 1344.5,2381.5C 1347.85,2379.74 1351.52,2378.74 1355.5,2378.5 Z M 1344.5,2381.5 C 1341.15,2383.26 1337.48,2384.26 1333.5,2384.5C 1336.85,2382.74 1340.52,2381.74 1344.5,2381.5 Z M 1333.5,2384.5 C 1330.15,2386.26 1326.48,2387.26 1322.5,2387.5C 1325.85,2385.74 1329.52,2384.74 1333.5,2384.5 Z M 1322.5,2387.5 C 1282.32,2398.96 1241.99,2410.3 1201.5,2421.5C 1200.7,2421.04 1200.37,2420.38 1200.5,2419.5C 1241.17,2408.83 1281.83,2398.17 1322.5,2387.5 Z"/></g>
<g><path style="opacity:0.997" fill="#fcd73b" d="M 1767.5,2266.5 C 1763.6,2267.06 1759.94,2268.06 1756.5,2269.5C 1752.6,2270.06 1748.94,2271.06 1745.5,2272.5C 1741.6,2273.06 1737.94,2274.06 1734.5,2275.5C 1732.9,2275.23 1731.57,2275.57 1730.5,2276.5C 1727.93,2276.72 1725.6,2277.39 1723.5,2278.5C 1721.9,2278.23 1720.57,2278.57 1719.5,2279.5C 1716.99,2279.93 1714.66,2280.59 1712.5,2281.5C 1710.9,2281.23 1709.57,2281.57 1708.5,2282.5C 1705.85,2282.41 1703.51,2283.08 1701.5,2284.5C 1699.9,2284.23 1698.57,2284.57 1697.5,2285.5C 1694.85,2285.41 1692.51,2286.08 1690.5,2287.5C 1688.9,2287.23 1687.57,2287.57 1686.5,2288.5C 1685.21,2288.26 1684.21,2288.6 1683.5,2289.5C 1681.9,2289.23 1680.57,2289.57 1679.5,2290.5C 1677.9,2290.23 1676.57,2290.57 1675.5,2291.5C 1674.21,2291.26 1673.21,2291.6 1672.5,2292.5C 1670.9,2292.23 1669.57,2292.57 1668.5,2293.5C 1666.9,2293.23 1665.57,2293.57 1664.5,2294.5C 1662.9,2294.23 1661.57,2294.57 1660.5,2295.5C 1659.21,2295.26 1658.21,2295.6 1657.5,2296.5C 1655.9,2296.23 1654.57,2296.57 1653.5,2297.5C 1651.9,2297.23 1650.57,2297.57 1649.5,2298.5C 1648.21,2298.26 1647.21,2298.6 1646.5,2299.5C 1645.39,2299.56 1644.39,2299.89 1643.5,2300.5C 1643.17,2299.17 1642.83,2299.17 1642.5,2300.5C 1640.9,2300.23 1639.57,2300.57 1638.5,2301.5C 1635.85,2301.41 1633.51,2302.08 1631.5,2303.5C 1629.9,2303.23 1628.57,2303.57 1627.5,2304.5C 1624.85,2304.41 1622.51,2305.08 1620.5,2306.5C 1618.9,2306.23 1617.57,2306.57 1616.5,2307.5C 1615.21,2307.26 1614.21,2307.6 1613.5,2308.5C 1611.9,2308.23 1610.57,2308.57 1609.5,2309.5C 1607.9,2309.23 1606.57,2309.57 1605.5,2310.5C 1604.21,2310.26 1603.21,2310.6 1602.5,2311.5C 1600.9,2311.23 1599.57,2311.57 1598.5,2312.5C 1596.9,2312.23 1595.57,2312.57 1594.5,2313.5C 1592.9,2313.23 1591.57,2313.57 1590.5,2314.5C 1589.21,2314.26 1588.21,2314.6 1587.5,2315.5C 1585.9,2315.23 1584.57,2315.57 1583.5,2316.5C 1581.9,2316.23 1580.57,2316.57 1579.5,2317.5C 1578.21,2317.26 1577.21,2317.6 1576.5,2318.5C 1574.9,2318.23 1573.57,2318.57 1572.5,2319.5C 1571.83,2319.83 1571.17,2320.17 1570.5,2320.5C 1569.83,2319.17 1569.17,2319.17 1568.5,2320.5C 1565.85,2320.41 1563.51,2321.08 1561.5,2322.5C 1559.9,2322.23 1558.57,2322.57 1557.5,2323.5C 1554.85,2323.41 1552.51,2324.08 1550.5,2325.5C 1548.9,2325.23 1547.57,2325.57 1546.5,2326.5C 1545.21,2326.26 1544.21,2326.6 1543.5,2327.5C 1541.9,2327.23 1540.57,2327.57 1539.5,2328.5C 1537.9,2328.23 1536.57,2328.57 1535.5,2329.5C 1534.21,2329.26 1533.21,2329.6 1532.5,2330.5C 1530.9,2330.23 1529.57,2330.57 1528.5,2331.5C 1526.9,2331.23 1525.57,2331.57 1524.5,2332.5C 1522.9,2332.23 1521.57,2332.57 1520.5,2333.5C 1519.21,2333.26 1518.21,2333.6 1517.5,2334.5C 1515.9,2334.23 1514.57,2334.57 1513.5,2335.5C 1511.9,2335.23 1510.57,2335.57 1509.5,2336.5C 1508.21,2336.26 1507.21,2336.6 1506.5,2337.5C 1504.9,2337.23 1503.57,2337.57 1502.5,2338.5C 1500.45,2338.37 1498.78,2339.03 1497.5,2340.5C 1496.83,2339.17 1496.17,2339.17 1495.5,2340.5C 1493.9,2340.23 1492.57,2340.57 1491.5,2341.5C 1489.9,2341.23 1488.57,2341.57 1487.5,2342.5C 1485.9,2342.23 1484.57,2342.57 1483.5,2343.5C 1482.21,2343.26 1481.21,2343.6 1480.5,2344.5C 1478.9,2344.23 1477.57,2344.57 1476.5,2345.5C 1475.21,2345.26 1474.21,2345.6 1473.5,2346.5C 1471.9,2346.23 1470.57,2346.57 1469.5,2347.5C 1467.9,2347.23 1466.57,2347.57 1465.5,2348.5C 1464.21,2348.26 1463.21,2348.6 1462.5,2349.5C 1460.9,2349.23 1459.57,2349.57 1458.5,2350.5C 1456.9,2350.23 1455.57,2350.57 1454.5,2351.5C 1452.9,2351.23 1451.57,2351.57 1450.5,2352.5C 1449.21,2352.26 1448.21,2352.6 1447.5,2353.5C 1445.9,2353.23 1444.57,2353.57 1443.5,2354.5C 1441.9,2354.23 1440.57,2354.57 1439.5,2355.5C 1437.8,2355.53 1436.47,2356.19 1435.5,2357.5C 1434.5,2356.17 1433.5,2356.17 1432.5,2357.5C 1430.9,2357.23 1429.57,2357.57 1428.5,2358.5C 1427.21,2358.26 1426.21,2358.6 1425.5,2359.5C 1423.9,2359.23 1422.57,2359.57 1421.5,2360.5C 1419.9,2360.23 1418.57,2360.57 1417.5,2361.5C 1416.21,2361.26 1415.21,2361.6 1414.5,2362.5C 1412.9,2362.23 1411.57,2362.57 1410.5,2363.5C 1408.45,2363.37 1406.78,2364.03 1405.5,2365.5C 1404.83,2364.17 1404.17,2364.17 1403.5,2365.5C 1401.9,2365.23 1400.57,2365.57 1399.5,2366.5C 1397.9,2366.23 1396.57,2366.57 1395.5,2367.5C 1394.21,2367.26 1393.21,2367.6 1392.5,2368.5C 1390.9,2368.23 1389.57,2368.57 1388.5,2369.5C 1386.9,2369.23 1385.57,2369.57 1384.5,2370.5C 1381.85,2370.41 1379.51,2371.08 1377.5,2372.5C 1375.9,2372.23 1374.57,2372.57 1373.5,2373.5C 1370.85,2373.41 1368.51,2374.08 1366.5,2375.5C 1364.9,2375.23 1363.57,2375.57 1362.5,2376.5C 1359.85,2376.41 1357.51,2377.08 1355.5,2378.5C 1351.52,2378.74 1347.85,2379.74 1344.5,2381.5C 1340.52,2381.74 1336.85,2382.74 1333.5,2384.5C 1329.52,2384.74 1325.85,2385.74 1322.5,2387.5C 1281.83,2398.17 1241.17,2408.83 1200.5,2419.5C 1198.96,2420.3 1197.29,2420.63 1195.5,2420.5C 1194.83,1776.5 1194.17,1132.5 1193.5,488.5C 1193.5,425.167 1193.5,361.833 1193.5,298.5C 1493.83,298.5 1794.17,298.5 2094.5,298.5C 2037.48,938.796 1980.65,1579.13 1924,2219.5C 1923.84,2222.99 1922,2224.83 1918.5,2225C 1867.96,2238.57 1817.63,2252.41 1767.5,2266.5 Z M 1803.5,582.5 C 1629.33,583.855 1455,584.855 1280.5,585.5C 1283.76,903.65 1287.1,1221.65 1290.5,1539.5C 1432.15,1515.39 1573.82,1491.39 1715.5,1467.5C 1713.9,1538.75 1711.56,1609.92 1708.5,1681C 1565.9,1719.15 1423.23,1756.98 1280.5,1794.5C 1281.83,1881.9 1283.67,1968.56 1286,2054.5C 1482.68,2002.66 1679.52,1951.33 1876.5,1900.5C 1896.19,1662.35 1915.86,1424.18 1935.5,1186C 1935.17,1184.5 1934.83,1183 1934.5,1181.5C 1789.21,1198.12 1643.88,1214.46 1498.5,1230.5C 1498.5,1102.17 1498.5,973.833 1498.5,845.5C 1654.17,844.778 1809.83,844.111 1965.5,843.5C 1971.34,756.71 1977.34,669.71 1983.5,582.5C 1923.5,582.5 1863.5,582.5 1803.5,582.5 Z"/></g>
<g><path style="opacity:1" fill="#f8d43a" d="M 1193.5,488.5 C 1194.17,1132.5 1194.83,1776.5 1195.5,2420.5C 1195.44,2421.04 1195.11,2421.38 1194.5,2421.5C 1193.5,1777.17 1193.17,1132.83 1193.5,488.5 Z"/></g>
<g><path style="opacity:0.91" fill="#eaeaea" d="M 1109.5,582.5 C 1109.83,1073.33 1109.5,1564 1108.5,2054.5C 893.827,1996.83 679.161,1939.16 464.5,1881.5C 464.5,1839.17 464.5,1796.83 464.5,1754.5C 464.168,1709 464.501,1663.66 465.5,1618.5C 606.065,1657.14 746.732,1695.48 887.5,1733.5C 889.125,1349.84 890.125,966.168 890.5,582.5C 963.5,582.5 1036.5,582.5 1109.5,582.5 Z"/></g>
<g><path style="opacity:0.941" fill="#d6bb3c" d="M 1109.5,582.5 C 1110.17,827.833 1110.5,1073.33 1110.5,1319C 1110.17,1564.5 1109.83,1810 1109.5,2055.5C 1108.89,2055.38 1108.56,2055.04 1108.5,2054.5C 1109.5,1564 1109.83,1073.33 1109.5,582.5 Z"/></g>
<g><path style="opacity:0.729" fill="#e3d9a8" d="M 465.5,1618.5 C 464.501,1663.66 464.168,1709 464.5,1754.5C 463.169,1709 463.169,1663.33 464.5,1617.5C 465.107,1617.62 465.44,1617.96 465.5,1618.5 Z"/></g>
</svg>
