<?xml version="1.0" encoding="UTF-8"?>
<!DOCTYPE svg PUBLIC "-//W3C//DTD SVG 1.1//EN" "http://www.w3.org/Graphics/SVG/1.1/DTD/svg11.dtd">
<svg xmlns="http://www.w3.org/2000/svg" version="1.1" width="1000px" height="1000px" style="shape-rendering:geometricPrecision; text-rendering:geometricPrecision; image-rendering:optimizeQuality; fill-rule:evenodd; clip-rule:evenodd" xmlns:xlink="http://www.w3.org/1999/xlink">
<g><path style="opacity:0.972" fill="#61dafb" d="M 317.5,92.5 C 340.473,92.2432 362.473,96.7432 383.5,106C 407.827,117.153 430.494,130.819 451.5,147C 467.943,160.273 483.943,174.106 499.5,188.5C 526.792,161.703 556.792,138.537 589.5,119C 608.642,107.927 628.976,99.9272 650.5,95C 705.855,85.9173 742.688,107.751 761,160.5C 769.048,189.986 771.715,219.986 769,250.5C 766.758,279.287 761.924,307.62 754.5,335.5C 792.908,346.87 829.574,362.37 864.5,382C 888.464,396.066 908.297,414.566 924,437.5C 941.607,467.653 941.94,497.987 925,528.5C 913.257,547.577 898.091,563.41 879.5,576C 841.187,600.817 799.854,619.15 755.5,631C 755.043,631.414 754.709,631.914 754.5,632.5C 768.433,681.362 772.6,731.028 767,781.5C 763.648,809.699 752.148,833.866 732.5,854C 707.182,873.834 678.849,879.834 647.5,872C 625.914,866.706 605.581,858.373 586.5,847C 555.07,827.749 526.07,805.249 499.5,779.5C 472.93,805.249 443.93,827.749 412.5,847C 385.812,863.618 356.812,873.118 325.5,875.5C 284.423,873.577 256.256,853.577 241,815.5C 230.349,783.667 226.683,751.001 230,717.5C 232.519,688.39 237.185,659.723 244,631.5C 204.426,620.46 166.926,604.626 131.5,584C 113.969,573.304 98.4695,560.138 85,544.5C 52.6225,501.478 53.9558,459.478 89,418.5C 115.126,392.741 145.293,372.908 179.5,359C 200.879,350.264 222.545,342.43 244.5,335.5C 229.978,284.597 226.145,232.93 233,180.5C 237.251,154.163 248.751,131.663 267.5,113C 282.113,100.967 298.779,94.134 317.5,92.5 Z M 323.5,130.5 C 348.805,132.435 372.138,140.268 393.5,154C 422.14,171.958 448.473,192.958 472.5,217C 445.94,245.883 421.273,276.217 398.5,308C 359.835,312.071 321.501,318.238 283.5,326.5C 282.353,326.182 281.519,325.516 281,324.5C 270.591,285.823 266.258,246.49 268,206.5C 268.946,187.665 273.946,169.998 283,153.5C 292.82,139.178 306.32,131.511 323.5,130.5 Z M 671.5,130.5 C 696.138,130.902 712.971,142.569 722,165.5C 727.041,178.703 730.041,192.369 731,206.5C 732.742,246.491 728.408,285.824 718,324.5C 717.481,325.516 716.647,326.182 715.5,326.5C 677.499,318.238 639.165,312.071 600.5,308C 577.727,276.217 553.06,245.883 526.5,217C 550.527,192.958 576.86,171.958 605.5,154C 625.909,141.277 647.909,133.443 671.5,130.5 Z M 498.5,245.5 C 499.239,245.369 499.906,245.536 500.5,246C 518.142,264.482 534.476,283.982 549.5,304.5C 516.167,304.5 482.833,304.5 449.5,304.5C 464.725,283.939 481.059,264.272 498.5,245.5 Z M 458.5,342.5 C 485.835,342.333 513.169,342.5 540.5,343C 553.588,343.241 566.588,344.241 579.5,346C 609.449,389.872 636.116,435.872 659.5,484C 636.116,532.128 609.449,578.128 579.5,622C 526.167,626.667 472.833,626.667 419.5,622C 389.551,578.128 362.884,532.128 339.5,484C 362.843,436.123 389.343,390.289 419,346.5C 420.067,345.809 421.234,345.309 422.5,345C 434.666,344.305 446.666,343.472 458.5,342.5 Z M 364.5,350.5 C 366.288,350.215 367.955,350.548 369.5,351.5C 351.824,379.511 335.157,408.178 319.5,437.5C 308.526,413.58 299.526,388.914 292.5,363.5C 316.51,358.5 340.51,354.167 364.5,350.5 Z M 629.5,350.5 C 655.37,353.645 681.037,357.978 706.5,363.5C 699.474,388.914 690.474,413.58 679.5,437.5C 663.568,407.956 646.901,378.956 629.5,350.5 Z M 252.5,373.5 C 253.496,373.414 254.329,373.748 255,374.5C 266.818,411.961 280.985,448.461 297.5,484C 280.641,519.912 266.141,556.745 254,594.5C 221.868,585.183 191.035,572.683 161.5,557C 142.336,546.844 125.836,533.344 112,516.5C 96.9976,496.832 95.9976,476.499 109,455.5C 122.051,437.782 138.218,423.615 157.5,413C 187.861,396.48 219.528,383.313 252.5,373.5 Z M 744.5,373.5 C 784.077,383.963 821.077,400.129 855.5,422C 867.74,430.697 878.574,440.864 888,452.5C 903.403,474.08 903.07,495.413 887,516.5C 873.164,533.344 856.664,546.844 837.5,557C 807.965,572.683 777.132,585.183 745,594.5C 732.859,556.745 718.359,519.912 701.5,484C 718.092,448.06 732.425,411.227 744.5,373.5 Z M 318.5,530.5 C 319.376,530.369 320.043,530.702 320.5,531.5C 335.771,560.909 352.437,589.409 370.5,617C 344.319,614.199 318.319,610.032 292.5,604.5C 299.777,579.334 308.444,554.668 318.5,530.5 Z M 678.5,530.5 C 680.335,531.122 681.502,532.456 682,534.5C 691.465,557.396 699.632,580.73 706.5,604.5C 680.681,610.032 654.681,614.199 628.5,617C 647.019,589.296 663.686,560.462 678.5,530.5 Z M 281.5,640.5 C 294.67,643.901 308.004,646.735 321.5,649C 347.15,653.08 372.816,656.747 398.5,660C 421.273,691.783 445.94,722.117 472.5,751C 444.394,779.041 413.061,802.707 378.5,822C 312.353,854.684 275.52,834.517 268,761.5C 266.359,720.484 270.859,680.151 281.5,640.5 Z M 716.5,640.5 C 728.101,679.894 732.934,720.227 731,761.5C 723.486,834.514 686.653,854.681 620.5,822C 585.939,802.707 554.606,779.041 526.5,751C 553.06,722.117 577.727,691.783 600.5,660C 626.184,656.747 651.85,653.08 677.5,649C 690.781,646.846 703.781,644.013 716.5,640.5 Z M 449.5,662.5 C 482.867,663.499 516.2,663.832 549.5,663.5C 534.01,684.135 517.343,703.802 499.5,722.5C 481.398,703.586 464.731,683.586 449.5,662.5 Z"/></g>
<g><path style="opacity:0.985" fill="#61dafb" d="M 496.5,404.5 C 542.941,406.779 570.108,430.779 578,476.5C 579.368,516.626 561.535,544.126 524.5,559C 485.699,569.182 454.865,558.016 432,525.5C 414.878,492.984 417.212,461.984 439,432.5C 454.506,415.496 473.673,406.163 496.5,404.5 Z"/></g>
</svg>
