<?xml version="1.0" encoding="UTF-8"?>
<!DOCTYPE svg PUBLIC "-//W3C//DTD SVG 1.1//EN" "http://www.w3.org/Graphics/SVG/1.1/DTD/svg11.dtd">
<svg xmlns="http://www.w3.org/2000/svg" version="1.1" width="1400px" height="933px" style="shape-rendering:geometricPrecision; text-rendering:geometricPrecision; image-rendering:optimizeQuality; fill-rule:evenodd; clip-rule:evenodd" xmlns:xlink="http://www.w3.org/1999/xlink">
<g><path style="opacity:1" fill="#fefefe" d="M -0.5,-0.5 C 466.167,-0.5 932.833,-0.5 1399.5,-0.5C 1399.5,310.5 1399.5,621.5 1399.5,932.5C 932.833,932.5 466.167,932.5 -0.5,932.5C -0.5,621.5 -0.5,310.5 -0.5,-0.5 Z"/></g>
<g><path style="opacity:1" fill="#67bc44" d="M 565.5,186.5 C 654.167,186.333 742.834,186.5 831.5,187C 850.609,190.807 866.109,200.307 878,215.5C 920,288.167 962,360.833 1004,433.5C 1013.57,454.337 1013.9,475.337 1005,496.5C 963.333,568.833 921.667,641.167 880,713.5C 867.921,730.133 851.754,740.633 831.5,745C 742.833,745.667 654.167,745.667 565.5,745C 545.568,740.054 529.735,729.221 518,712.5C 477.253,641.337 436.253,570.337 395,499.5C 385.089,477.142 385.089,454.809 395,432.5C 436.667,360.5 478.333,288.5 520,216.5C 531.825,201.344 546.991,191.344 565.5,186.5 Z"/></g>
<g><path style="opacity:1" fill="#fdfefd" d="M 692.5,277.5 C 709.003,276.183 719.17,283.516 723,299.5C 723.667,352.833 723.667,406.167 723,459.5C 717.723,477.889 705.89,484.389 687.5,479C 679.672,475.173 674.839,469.006 673,460.5C 672.333,406.833 672.333,353.167 673,299.5C 675.466,288.537 681.966,281.204 692.5,277.5 Z"/></g>
<g><path style="opacity:1" fill="#fefefd" d="M 604.5,312.5 C 622.693,312.524 631.526,321.524 631,339.5C 630.144,343.544 628.478,347.211 626,350.5C 579.778,385.988 563.112,432.321 576,489.5C 591.686,538.851 624.853,569.018 675.5,580C 732.763,587.112 776.93,566.612 808,518.5C 827.7,481.085 829.7,442.752 814,403.5C 804.056,381.891 789.389,364.224 770,350.5C 762.667,340.167 762.667,329.833 770,319.5C 778.678,311.715 788.178,310.549 798.5,316C 848.879,354.604 872.379,405.77 869,469.5C 860.147,540.004 822.981,588.837 757.5,616C 685.829,638.985 623.662,623.818 571,570.5C 532.582,525.535 519.248,473.869 531,415.5C 541.253,375.811 562.42,343.311 594.5,318C 597.767,315.871 601.101,314.038 604.5,312.5 Z"/></g>
</svg>
