<svg width="29" height="28" viewBox="0 0 29 28" fill="none" xmlns="http://www.w3.org/2000/svg">
<path d="M24.7709 2.91663H4.22919L6.04169 22.75L14.5 25.0833L22.9584 22.75L24.7709 2.91663Z" fill="#E65100"/>
<path d="M14.5 4.66663V23.275L21.2667 21.4083L22.7771 4.66663H14.5Z" fill="#FF6D00"/>
<path d="M14.5 14.5834V12.25H19.6958L19.2729 18.9584L14.5 20.475V18.025L16.9771 17.2084L17.1583 14.5834H14.5ZM19.8771 9.91671L20.0583 7.58337H14.5V9.91671H19.8771Z" fill="white"/>
<path d="M14.5 18.025V20.475L9.72708 18.9584L9.48541 15.75H11.9021L12.0229 17.2084L14.5 18.025ZM11.5396 9.91671H14.5V7.58337H9.00208L9.42499 14.5834H14.5V12.25H11.7208L11.5396 9.91671Z" fill="#EEEEEE"/>
</svg>
