<svg width="26" height="25" viewBox="0 0 26 25" fill="none" xmlns="http://www.w3.org/2000/svg">
<path d="M12.8104 12.9677C12.2698 12.1296 11.8777 11.4348 11.3344 10.1265C10.4157 7.91662 16.9217 5.91974 14.2838 2.08276C15.4272 4.73328 10.1796 6.37183 9.69205 8.57912C9.24626 10.6093 12.8077 12.9677 12.8104 12.9677Z" fill="#F44336"/>
<path d="M12.9339 8.99474C12.8299 10.3052 14.1413 11.0036 14.1792 11.9609C14.2095 12.7401 13.3954 13.3895 13.3954 13.3895C13.3954 13.3895 14.8731 13.1104 15.334 11.9218C15.8459 10.602 14.3406 9.69839 14.4955 8.64162C14.6402 7.63224 17.7623 5.75464 17.7623 5.75464C17.7623 5.75464 13.1685 6.04735 12.9339 8.99474Z" fill="#F44336"/>
<path d="M17.3788 13.0495C18.3289 12.8443 19.13 13.4261 19.13 14.0964C19.13 15.6073 16.952 17.0355 16.952 17.0355C16.952 17.0355 20.3239 16.649 20.3239 14.1683C20.3239 12.5276 18.668 12.1178 17.3788 13.0495ZM15.7782 14.2683C15.7782 14.2683 16.8296 13.548 17.1096 13.2776C14.5297 13.8042 8.63903 13.875 8.63903 13.4178C8.63903 12.9964 10.5387 12.5646 10.5387 12.5646C10.5387 12.5646 6.32828 12.5063 6.32828 13.7006C6.32828 14.9454 11.8397 15.0344 15.7782 14.2683Z" fill="#1565C0"/>
<path d="M15.1315 15.4016C12.6891 16.1823 8.19056 15.9328 9.52306 14.8844C8.87414 14.8844 7.91214 15.386 7.91214 15.8683C7.91214 16.8354 12.7774 17.5823 16.3784 16.1662L15.1315 15.4016Z" fill="#1565C0"/>
<path d="M10.1216 17.0516C9.23543 17.0516 8.6618 17.6006 8.6618 18.0006C8.6618 19.2459 13.9485 19.3714 16.0431 18.1074L14.7117 17.2574C13.1468 17.9188 9.21593 18.01 10.1216 17.0516Z" fill="#1565C0"/>
<path d="M19.6522 19.0792C19.6522 18.5917 19.0807 18.3621 18.876 18.2522C20.0828 21.0506 6.78762 20.8334 6.78762 19.1813C6.78762 18.8058 7.76642 18.4381 8.671 18.6121L7.90183 18.1751C6.09917 17.9032 4.875 18.6652 4.875 19.2798C4.875 22.1459 19.6522 22.0079 19.6522 19.0792Z" fill="#1565C0"/>
<path d="M21.125 20.1063C18.8793 22.2391 13.1847 23.0162 7.45822 21.6985C13.1847 24.0438 21.0979 22.723 21.125 20.1063Z" fill="#1565C0"/>
</svg>
