<svg width="26" height="25" viewBox="0 0 26 25" fill="none" xmlns="http://www.w3.org/2000/svg">
<path d="M13.0255 2.60416C12.1832 2.60677 11.5992 2.67812 10.8935 2.79531C8.80912 3.14427 8.42941 3.87708 8.42941 5.2276V7.29166H13.3044V8.33333H8.24416H5.88791C4.46008 8.33333 3.21045 8.98021 2.81449 10.5307C2.36708 12.3104 2.34704 13.425 2.81449 15.2833C3.16929 16.6693 3.95091 17.7083 5.37929 17.7083H7.34662V15.05C7.34662 13.5052 8.80153 11.9792 10.4688 11.9792H14.3883C15.7549 11.9792 17.0966 11.0094 17.0966 9.69948V5.2276C17.0966 3.95729 16.1438 3.00729 14.8119 2.79427C14.8449 2.79114 13.8607 2.60104 13.0255 2.60416ZM10.3258 4.6875C10.7705 4.6875 11.1383 5.0401 11.1383 5.46979C11.1383 5.90364 10.7705 6.25 10.3258 6.25C9.87241 6.25 9.51328 5.90416 9.51328 5.46979C9.51328 5.04166 9.87241 4.6875 10.3258 4.6875Z" fill="#0277BD"/>
<path d="M12.5006 22.3958C13.3429 22.3932 13.9268 22.3218 14.6326 22.2046C16.7169 21.8557 17.0966 21.1229 17.0966 19.7724V17.7083H12.2216V16.6666H17.2824H19.6387C21.0665 16.6666 22.3161 16.0198 22.7121 14.4692C23.1595 12.6895 23.1795 11.575 22.7121 9.71663C22.3567 8.33069 21.5751 7.29163 20.1467 7.29163H18.1794V9.94996C18.1794 11.4948 16.7245 13.0208 15.0572 13.0208H11.1377C9.77112 13.0208 8.42941 13.9906 8.42941 15.3005V19.7724C8.42941 21.0427 9.3822 21.9927 10.7142 22.2057C10.6811 22.2088 11.6653 22.3989 12.5006 22.3958ZM15.2008 20.3125C14.7561 20.3125 14.3883 19.9599 14.3883 19.5302C14.3883 19.0963 14.7561 18.75 15.2008 18.75C15.6542 18.75 16.0133 19.0958 16.0133 19.5302C16.0133 19.9583 15.6536 20.3125 15.2008 20.3125Z" fill="#FFC107"/>
</svg>
