<svg width="26" height="25" viewBox="0 0 26 25" fill="none" xmlns="http://www.w3.org/2000/svg">
<path d="M3.25 5.72915C3.25 4.57863 4.22012 3.64581 5.41667 3.64581H20.0417C21.2382 3.64581 22.2083 4.57863 22.2083 5.72915V19.7916C22.2083 20.9422 21.2382 21.875 20.0417 21.875H5.41667C4.22012 21.875 3.25 20.9422 3.25 19.7916V5.72915Z" fill="#78909C"/>
<path d="M22.2083 5.72915C22.2083 4.57863 21.2382 3.64581 20.0417 3.64581H19.9794L16.022 7.15883L14.3081 5.513L13.5422 4.77758L12.7768 5.513L11.1508 7.0755L10.4336 7.76456L11.1015 8.49842L14.8942 12.6651L15.6043 13.4453L16.419 12.7661L22.2083 7.94113V5.72915Z" fill="#455A64"/>
<path d="M9.01117 18.3282C9.01117 18.0787 8.91692 17.8834 8.72842 17.7438C8.53992 17.6037 8.20842 17.4594 7.73446 17.3099C7.2605 17.1599 6.87267 17.0162 6.5715 16.8761C5.59271 16.4245 5.10304 15.8037 5.10304 15.0141C5.10304 14.6209 5.22492 14.2745 5.46921 13.9735C5.7135 13.6724 6.058 13.4386 6.50433 13.2719C6.95067 13.1047 7.45225 13.0209 8.00962 13.0209C8.55237 13.0209 9.03987 13.112 9.4705 13.2938C9.90167 13.4756 10.2359 13.7349 10.4747 14.0709C10.7136 14.4073 10.8333 14.6724 10.8333 15.1042H9.01658C9.01658 14.8151 8.92233 14.7105 8.73383 14.5511C8.54533 14.3917 8.29021 14.3125 7.96846 14.3125C7.64346 14.3125 7.38671 14.3797 7.19767 14.5146C7.00917 14.65 6.91492 14.8209 6.91492 15.0287C6.91492 15.211 7.01892 15.3761 7.22637 15.523C7.43383 15.6709 7.79892 15.824 8.32162 15.9818C8.84379 16.1391 9.27333 16.3094 9.60862 16.4912C10.4255 16.9334 10.8333 17.5427 10.8333 18.3193C10.8333 18.9391 10.5842 19.4271 10.0864 19.7813C9.58696 20.1355 8.90392 20.3125 8.03562 20.3125C7.42354 20.3125 6.86887 20.2089 6.37217 20.0032C5.876 19.7969 5.50225 19.5141 5.25146 19.1547C5.00067 18.7954 4.875 18.1761 4.875 17.7084H6.7015C6.7015 18.0886 6.80658 18.5756 7.01512 18.7552C7.22421 18.936 7.56492 19.0261 8.03508 19.0261C8.33571 19.0261 8.57404 18.9657 8.749 18.8433C8.92396 18.7214 9.01117 18.549 9.01117 18.3282ZM14.5974 20.3125C13.7984 20.3125 13.1511 20.0829 12.6577 19.623C12.1642 19.1636 11.9167 18.5662 11.9167 17.8297V17.6995C11.9167 17.1855 12.0147 16.7329 12.2124 16.3396C12.4096 15.9459 12.6977 15.6422 13.0764 15.4271C13.4539 15.212 13.9035 15.1042 14.4235 15.1042C15.1553 15.1042 15.7327 15.3235 16.1563 15.761C16.5799 16.199 16.7917 16.8089 16.7917 17.5922V18.2292H13.5671C13.6251 18.5105 13.7518 18.7032 13.9474 18.8636C14.1424 19.025 14.397 19.1052 14.7079 19.1052C15.2203 19.1052 15.6217 18.9323 15.9109 18.5849L16.6525 19.4302C16.4499 19.7 16.1639 19.9141 15.7934 20.073C15.4229 20.2329 15.0242 20.3125 14.5974 20.3125ZM14.4143 16.311C13.9398 16.311 13.657 16.5808 13.5677 17.1875H15.204V17.1C15.2105 16.8495 15.1445 16.6552 15.0069 16.5177C14.8693 16.3802 14.671 16.311 14.4143 16.311Z" fill="white"/>
<path d="M11.9167 7.81252L13.5428 6.25002L15.9927 8.60314L22.75 2.60419L23.8334 5.20835L15.7094 11.9792L11.9167 7.81252Z" fill="#66BB6A"/>
</svg>
