<svg width="31" height="30" viewBox="0 0 31 30" fill="none" xmlns="http://www.w3.org/2000/svg">
<path d="M28.405 14.7719C28.4496 12.1087 27.8296 8.94187 26.5379 5.22625L25.5252 2.3125L24.1496 5.08313C24.076 5.23125 23.992 5.37625 23.9042 5.51938C21.6444 3.64188 18.7124 2.5 15.5 2.5C8.3661 2.5 2.58331 8.09625 2.58331 15C2.58331 21.9037 8.3661 27.5 15.5 27.5C22.6339 27.5 28.4166 21.9037 28.4166 15C28.4166 14.9231 28.4063 14.8487 28.405 14.7719Z" fill="#8BC34A"/>
<path d="M25.4361 20.3487C23.4192 23.0375 19.849 23.1819 16.4887 23.125H12.1094H10.8577C13.7175 22.1294 15.4192 21.8925 17.1572 21C20.4303 19.3344 23.6659 15.69 24.3395 11.8987C23.093 15.5462 19.3156 18.68 15.8733 19.9544C13.5147 20.825 9.25477 21.67 9.25477 21.67L9.08233 21.5794C6.18254 20.1675 6.09471 13.8837 11.3666 11.855C13.6749 10.9656 15.883 11.4544 18.3765 10.8594C21.0386 10.2269 24.118 8.22937 25.3709 5.625C26.7736 9.79187 28.4618 16.3162 25.4361 20.3487ZM10.1189 24.0281C9.93677 24.2469 9.65842 24.375 9.36779 24.375C8.83627 24.375 8.40227 23.9519 8.40227 23.4375C8.40227 22.9231 8.8395 22.5 9.36779 22.5C9.58802 22.5 9.80502 22.5737 9.97552 22.71C10.3889 23.0344 10.4534 23.6281 10.1189 24.0281Z" fill="white"/>
</svg>
