<svg width="26" height="25" viewBox="0 0 26 25" fill="none" xmlns="http://www.w3.org/2000/svg">
<path d="M13 5.00208C9.53333 5.00208 7.36667 6.66822 6.5 10.0005C7.8 8.33437 9.31667 7.70989 11.05 8.12603C12.0391 8.36353 12.746 9.05364 13.5287 9.81718C14.8027 11.0604 16.2776 12.5 19.5 12.5C22.9667 12.5 25.1333 10.8338 26 7.50103C24.7 9.16718 23.1833 9.79218 21.45 9.37603C20.4615 9.13853 19.7546 8.44843 18.9719 7.68489C17.6973 6.44114 16.2218 5.00208 13 5.00208ZM6.5 12.5C3.03333 12.5 0.866667 14.1661 0 17.4989C1.3 15.8328 2.81667 15.2078 4.55 15.6245C5.53854 15.8625 6.24542 16.5521 7.02813 17.3151C8.30267 18.5588 9.77817 19.9984 13 19.9984C16.4667 19.9984 18.6333 18.3323 19.5 14.9995C18.2 16.6656 16.6833 17.2906 14.95 16.8739C13.9609 16.6364 13.254 15.9463 12.4713 15.1833C11.1973 13.9396 9.72238 12.5 6.5 12.5Z" fill="#00ACC1"/>
</svg>
